<svg width="199" height="117" viewBox="0 0 199 117" fill="none" xmlns="http://www.w3.org/2000/svg">
<path d="M53.1351 3C52.3944 3.97321 38.6089 13.5323 26.3521 19.0244M26.3521 19.0244C16.7654 23.3201 8.11396 25.1277 7.37105 18.393C6.27092 8.42005 17.7613 6.03673 22.9924 10.3713C24.9018 11.9534 25.9553 15.003 26.3521 19.0244ZM26.3521 19.0244C27.9671 35.3921 18.7032 67.8584 11.9915 83M56 36.5714C23.1184 42.751 6.96599 43.3472 3 42.8729" stroke="#84B5FF" stroke-width="6" stroke-linecap="round"/>
<path d="M30 74.6081C30 73.7393 30.0511 72.8194 30.1533 71.8484C30.6896 67.4533 32.0689 63.5566 34.2911 60.1581C36.9986 56.0185 40.2552 53.9487 44.061 53.9487C45.6957 53.9487 47.126 54.2682 48.3521 54.907C48.8629 54.2937 49.5653 53.9743 50.4593 53.9487C50.9702 53.9487 51.2894 53.9871 51.4171 54.0637C52.5155 54.4215 53.0646 55.5075 53.0646 57.3217C53.0646 58.0627 52.9369 59.6598 52.6815 62.1128C51.8897 69.3698 51.4938 73.8798 51.4938 75.643C51.4938 76.8184 51.7364 77.9172 52.2217 78.9393C52.9369 80.4724 53.882 81.239 55.0569 81.239C55.2868 81.239 55.5294 81.2135 55.7849 81.1624C56.5511 81.009 57.6494 80.4213 59.0798 79.3992C60.4846 78.3771 61.6085 77.8661 62.4514 77.8661C62.7834 77.8661 63.1282 77.981 63.4858 78.211C64.2266 78.7221 64.5969 79.3992 64.5969 80.2425C64.5203 81.5712 63.5114 82.951 61.5702 84.382C59.2458 86.0174 56.781 86.8351 54.1757 86.8351C50.9574 86.8095 48.582 85.1869 47.0494 81.9673C46.6918 82.4017 46.2832 82.8361 45.8234 83.2705C43.2947 85.6469 40.7277 86.8351 38.1224 86.8351C36.4877 86.8351 35.0701 86.4134 33.8696 85.5702C31.2899 83.6793 30 80.0253 30 74.6081ZM46.8579 61.9978C46.8579 61.9978 46.9473 61.1291 47.126 59.3915C46.5641 59.1104 45.9767 58.9699 45.3636 58.9699C44.9039 58.9699 44.4313 59.0337 43.946 59.1615C41.5706 59.8259 39.5656 62.0234 37.9309 65.7541C36.4749 69.1015 35.747 72.4617 35.747 75.8346C35.747 75.9624 35.747 76.0901 35.747 76.2179C35.8236 79.3353 36.6154 80.8941 38.1224 80.8941C38.9142 80.8685 39.8848 80.4341 41.0342 79.5909C42.2092 78.7476 43.0648 77.9555 43.6012 77.2145C43.9333 76.729 44.3803 75.3108 44.9422 72.9599C45.9639 68.5904 46.6024 64.9364 46.8579 61.9978Z" fill="url(#paint0_linear_103_143)"/>
<path d="M62.2215 82.6572C62.2215 82.6572 63.307 74.4548 65.4781 58.05C65.5292 57.6156 65.5931 57.2067 65.6697 56.8234C66.1295 54.6259 67.1256 53.5271 68.6581 53.5271C68.9391 53.5271 69.2201 53.5527 69.501 53.6038C70.676 53.8849 71.2634 54.9964 71.2634 56.9384C71.2634 57.2195 71.2379 57.705 71.1868 58.3949C71.1613 58.8549 71.1485 59.2126 71.1485 59.4681C71.1996 59.3659 71.2634 59.2637 71.3401 59.1615C73.2302 55.8141 75.9249 54.1404 79.4242 54.1404C80.6757 54.1404 81.8251 54.5109 82.8724 55.2519C84.4304 56.4018 85.2095 57.9222 85.2095 59.8131C85.2095 60.1197 85.1967 60.848 85.1712 61.9978C85.1456 64.6042 85.1329 66.674 85.1329 68.2071C85.1329 73.4199 85.2861 76.4862 85.5926 77.4061C85.6692 77.6105 85.7459 77.8277 85.8225 78.0577C86.5377 79.9997 87.5466 80.9707 88.8492 80.9707C89.0791 80.9707 89.3345 80.9452 89.6155 80.8941C90.3818 80.7407 91.4801 80.1403 92.9105 79.0926C94.3153 78.096 95.4391 77.5978 96.282 77.5978C96.6141 77.5978 96.9333 77.6872 97.2399 77.8661C98.0317 78.326 98.4276 79.0798 98.4276 80.1275C98.2743 81.3796 97.2015 82.7594 95.2093 84.267C92.8594 85.8513 90.4967 86.6434 88.1213 86.6434C86.2056 86.6434 84.5837 86.1196 83.2555 85.0719C80.5225 82.8744 79.156 78.0577 79.156 70.6219C79.156 70.0853 79.1687 69.2165 79.1943 68.0155C79.2454 66.7634 79.2709 65.7158 79.2709 64.8725C79.2709 62.1384 78.9644 60.733 78.3514 60.6563C78.2492 60.6563 78.1215 60.6819 77.9683 60.733C76.5124 61.2696 74.6478 64.1698 72.3745 69.4337C70.3822 74.0587 69.1051 77.9044 68.5432 80.9707L68.4666 82.0823C68.3899 83.0022 68.1345 83.8454 67.7003 84.612C66.9596 85.8385 66.0401 86.4518 64.9417 86.4518C64.6352 86.4518 64.3287 86.3879 64.0222 86.2601C62.8217 85.698 62.2215 84.497 62.2215 82.6572Z" fill="url(#paint1_linear_103_143)"/>
<path d="M93.0637 74.7997C93.0637 73.931 93.1148 73.0111 93.217 72.0401C93.7533 67.645 95.1326 63.7482 97.3548 60.3497C100.062 56.2102 103.319 54.1404 107.125 54.1404C108.785 54.1404 110.241 54.4598 111.492 55.0986C112.003 54.4854 112.693 54.1659 113.561 54.1404C115.247 54.1659 116.116 55.2519 116.167 57.3984C116.167 57.475 114.762 67.5939 111.952 87.755C117.597 83.5388 121.173 80.8046 122.68 79.5525C123.625 78.7349 124.608 78.3132 125.63 78.2877C125.988 78.2877 126.332 78.4027 126.664 78.6326C127.405 79.1437 127.776 79.7953 127.776 80.5874C127.75 81.7884 127.048 82.9766 125.668 84.152C123.114 86.2984 118.146 90.1952 110.764 95.8424L109.002 108.529C108.568 111.442 107.329 113.665 105.286 115.199C103.625 116.4 101.799 117 99.8068 117C97.457 116.974 95.3753 116.08 93.5618 114.317C91.8249 112.554 90.9565 110.586 90.9565 108.414C90.9565 106.268 91.4418 104.492 92.4124 103.087C93.0254 102.192 94.2131 101.093 95.9755 99.7903L96.0521 99.7519C96.0777 99.7264 96.1543 99.6625 96.282 99.5603C98.0444 98.2571 101.097 95.9701 105.439 92.6994L106.55 85.2636C104.839 86.4134 103.051 87.0011 101.186 87.0267C99.5514 87.0267 98.1338 86.6051 96.9333 85.7618C94.3536 83.8709 93.0637 80.2169 93.0637 74.7997ZM106.665 77.4061C107.023 76.8951 107.457 75.528 107.968 73.3049C109.015 68.7821 109.768 64.2337 110.228 59.6598C109.641 59.3531 109.04 59.187 108.427 59.1615C107.968 59.1615 107.495 59.2254 107.01 59.3531C104.634 60.0175 102.616 62.215 100.956 65.9457C99.5003 69.2931 98.7724 72.6533 98.7724 76.0263C98.7724 76.384 98.7852 76.7417 98.8107 77.0995C98.9895 79.7825 99.7813 81.124 101.186 81.124C101.901 81.124 102.77 80.7663 103.791 80.0508C104.992 79.2076 105.95 78.326 106.665 77.4061ZM103.523 105.463C103.523 105.463 103.74 103.904 104.175 100.787C104.072 100.863 103.957 100.953 103.83 101.055C101.301 102.997 100.011 103.994 99.9601 104.045C98.1211 105.425 97.1888 106.728 97.1632 107.954C97.1632 108.389 97.2399 108.798 97.3931 109.181C97.8273 110.305 98.6319 110.867 99.8068 110.867C100.292 110.867 100.726 110.791 101.11 110.637C102.361 110.101 103.166 108.376 103.523 105.463Z" fill="url(#paint2_linear_103_143)"/>
<path d="M122.718 74.7997C122.718 73.931 122.769 73.0111 122.871 72.0401C123.408 67.645 124.787 63.7482 127.009 60.3497C129.717 56.2102 132.973 54.1404 136.779 54.1404C138.439 54.1404 139.895 54.4598 141.147 55.0986C141.658 54.4854 142.347 54.1659 143.216 54.1404C144.902 54.1659 145.77 55.2519 145.821 57.3984C145.821 57.475 144.416 67.5939 141.607 87.755C147.251 83.5388 150.827 80.8046 152.334 79.5525C153.279 78.7349 154.263 78.3132 155.285 78.2877C155.642 78.2877 155.987 78.4027 156.319 78.6326C157.06 79.1437 157.43 79.7953 157.43 80.5874C157.405 81.7884 156.702 82.9766 155.323 84.152C152.769 86.2984 147.801 90.1952 140.419 95.8424L138.657 108.529C138.222 111.442 136.984 113.665 134.94 115.199C133.28 116.4 131.454 117 129.461 117C127.111 116.974 125.03 116.08 123.216 114.317C121.479 112.554 120.611 110.586 120.611 108.414C120.611 106.268 121.096 104.492 122.067 103.087C122.68 102.192 123.868 101.093 125.63 99.7903L125.707 99.7519C125.732 99.7264 125.809 99.6625 125.937 99.5603C127.699 98.2571 130.751 95.9701 135.093 92.6994L136.204 85.2636C134.493 86.4134 132.705 87.0011 130.841 87.0267C129.206 87.0267 127.788 86.6051 126.588 85.7618C124.008 83.8709 122.718 80.2169 122.718 74.7997ZM136.319 77.4061C136.677 76.8951 137.111 75.528 137.622 73.3049C138.669 68.7821 139.423 64.2337 139.883 59.6598C139.295 59.3531 138.695 59.187 138.082 59.1615C137.622 59.1615 137.15 59.2254 136.664 59.3531C134.289 60.0175 132.271 62.215 130.611 65.9457C129.155 69.2931 128.427 72.6533 128.427 76.0263C128.427 76.384 128.44 76.7417 128.465 77.0995C128.644 79.7825 129.436 81.124 130.841 81.124C131.556 81.124 132.424 80.7663 133.446 80.0508C134.646 79.2076 135.604 78.326 136.319 77.4061ZM133.178 105.463C133.178 105.463 133.395 103.904 133.829 100.787C133.727 100.863 133.612 100.953 133.484 101.055C130.956 102.997 129.666 103.994 129.615 104.045C127.776 105.425 126.843 106.728 126.818 107.954C126.818 108.389 126.894 108.798 127.048 109.181C127.482 110.305 128.286 110.867 129.461 110.867C129.947 110.867 130.381 110.791 130.764 110.637C132.016 110.101 132.82 108.376 133.178 105.463Z" fill="url(#paint3_linear_103_143)"/>
<path d="M169.537 86.6434C163.381 86.3879 158.822 82.6316 155.859 75.3747C153.663 69.9064 152.564 63.2116 152.564 55.2903C152.564 54.8814 152.59 54.3576 152.641 53.7188C152.998 48.3272 153.995 43.3827 155.629 38.8854C158.286 31.6285 162.04 28 166.893 28C167.149 28 167.417 28.0128 167.698 28.0383C172.117 28.3194 174.326 30.8875 174.326 35.7425C174.326 41.0319 172.053 46.909 167.506 53.3738C164.62 57.4878 161.593 60.8224 158.426 63.3777C159.295 68.2327 160.252 71.874 161.3 74.3015C163.241 78.7987 166.127 81.0474 169.959 81.0474C170.214 81.0474 170.482 81.0218 170.763 80.9707C171.606 80.8174 172.781 80.2041 174.288 79.1309C175.744 78.1344 176.88 77.6361 177.698 77.6361C178.055 77.6361 178.4 77.7511 178.732 77.981C179.473 78.4921 179.843 79.182 179.843 80.0508C179.792 81.3796 178.847 82.7466 177.008 84.152C174.709 85.8129 172.219 86.6434 169.537 86.6434ZM166.932 33.7877C165.425 33.8132 164.097 34.4648 162.947 35.7425C160.035 39.0388 158.439 45.9252 158.158 56.4018C159.691 54.8431 161.223 53.0033 162.756 50.8824C166.996 45.082 169.116 40.1886 169.116 36.2024C169.116 35.998 169.065 35.7552 168.962 35.4742C168.554 34.3498 167.877 33.7877 166.932 33.7877Z" fill="url(#paint4_linear_103_143)"/>
<path d="M174.479 74.9147C174.479 74.0459 174.531 73.126 174.633 72.155C175.169 67.7855 176.548 63.9015 178.771 60.503C181.478 56.3379 184.735 54.2554 188.54 54.2554C189.562 54.2554 190.546 54.3831 191.491 54.6387C194.862 55.6097 196.548 57.9861 196.548 61.7679C196.548 62.049 196.535 62.3428 196.51 62.6494C196.254 66.0735 194.722 68.9482 191.912 71.2735C189.153 73.5732 185.948 74.7231 182.295 74.7231C181.606 74.7231 180.929 74.6592 180.265 74.5314C180.214 74.9147 180.188 75.4513 180.188 76.1413C180.188 77.6233 180.444 78.7732 180.954 79.5909C181.644 80.6385 183.062 81.2518 185.207 81.4307C186.152 81.4307 187.085 81.3284 188.004 81.124C189.613 80.7407 191.516 79.8336 193.713 78.4027C195.143 77.4572 196.152 76.9845 196.74 76.9845C197.072 76.9845 197.416 77.0867 197.774 77.2911C198.591 77.7766 199 78.4793 199 79.3992C199 79.7059 198.936 80.038 198.808 80.3958C198.119 82.0567 196.05 83.6282 192.602 85.1102C189.409 86.4901 186.599 87.18 184.173 87.18C183.253 87.18 182.398 87.1034 181.606 86.95C176.855 85.979 174.479 81.9673 174.479 74.9147ZM186.778 60.273C184.454 61.8318 182.627 64.7959 181.299 69.1654C181.938 69.3187 182.551 69.3953 183.138 69.3953C185.258 69.3953 187.11 68.7438 188.694 67.4406C190.456 66.0096 191.337 64.3104 191.337 62.3428C191.337 60.3753 190.712 59.3787 189.46 59.3531C188.566 59.3787 187.672 59.6853 186.778 60.273Z" fill="url(#paint5_linear_103_143)"/>
<defs>
<linearGradient id="paint0_linear_103_143" x1="30" y1="53.5" x2="216.5" y2="73" gradientUnits="userSpaceOnUse">
<stop stop-color="#84B5FF"/>
<stop offset="1" stop-color="#5C9DFF"/>
</linearGradient>
<linearGradient id="paint1_linear_103_143" x1="30" y1="53.5" x2="216.5" y2="73" gradientUnits="userSpaceOnUse">
<stop stop-color="#84B5FF"/>
<stop offset="1" stop-color="#5C9DFF"/>
</linearGradient>
<linearGradient id="paint2_linear_103_143" x1="30" y1="53.5" x2="216.5" y2="73" gradientUnits="userSpaceOnUse">
<stop stop-color="#84B5FF"/>
<stop offset="1" stop-color="#5C9DFF"/>
</linearGradient>
<linearGradient id="paint3_linear_103_143" x1="30" y1="53.5" x2="216.5" y2="73" gradientUnits="userSpaceOnUse">
<stop stop-color="#84B5FF"/>
<stop offset="1" stop-color="#5C9DFF"/>
</linearGradient>
<linearGradient id="paint4_linear_103_143" x1="30" y1="53.5" x2="216.5" y2="73" gradientUnits="userSpaceOnUse">
<stop stop-color="#84B5FF"/>
<stop offset="1" stop-color="#5C9DFF"/>
</linearGradient>
<linearGradient id="paint5_linear_103_143" x1="30" y1="53.5" x2="216.5" y2="73" gradientUnits="userSpaceOnUse">
<stop stop-color="#84B5FF"/>
<stop offset="1" stop-color="#5C9DFF"/>
</linearGradient>
</defs>
</svg>
